<?xml version="1.0" encoding="UTF-8"?><svg id="Layer_2" xmlns="http://www.w3.org/2000/svg" viewBox="0 0 1024 636.14"><defs><style>.cls-1{fill:#fe8d29;stroke-width:0px;}</style></defs><g id="Layer_1-2"><path class="cls-1" d="m136.06,636.14h-64.05c-27.98,0-46.98-2.06-56.99-6.19-10.03-4.11-15.02-10.6-15.02-19.44V53.01c0-13.55,18.11-24.3,54.33-32.25,36.22-7.95,74.95-11.93,116.19-11.93s70.69,5.3,88.36,15.9c17.67,10.6,27.97,21.8,30.92,33.58l60.09,233.25h7.95l56.54-222.65c4.11-15.9,21.37-33.27,55.83-45.35,34.46-12.06,72.3-18.11,113.53-18.11s71.7,3.24,91.44,9.71c19.73,6.49,31.65,18.11,31.65,28.12v567.23c0,7.66-16.79,13.84-50.36,18.56-33.58,4.72-74.52,7.07-122.81,7.07s-72.46-8.53-72.46-25.62c0-46.52,5-129.28,15.02-248.27h-7.95l-45.95,230.6c-1.77,8.83-8.99,15.32-21.64,19.44-12.67,4.13-31.67,6.19-56.99,6.19s-40.79-1.77-46.39-5.31c-5.6-3.54-9.27-10.3-11.04-20.32l-47.71-230.6h-7.95c10.6,121.35,15.9,204.09,15.9,248.27,0,15.32-36.82,23.85-110.44,25.62Z"/><path class="cls-1" d="m702.4,610.52c0,7.66-17.98,13.84-53.9,18.56-35.94,4.72-71.87,7.07-107.79,7.07s-58.9-2.06-68.91-6.19c-10.03-4.11-15.02-10.6-15.02-19.44V42.41c0-28.28,84.82-42.41,254.46-42.41,102.49,0,170.21,7.07,203.21,21.2,40.05,16.49,67.14,38.87,81.28,67.14,18.84,36.53,28.27,83.36,28.27,140.49,0,78.35-13.55,135.18-40.64,170.52-19.44,25.93-38.87,42.71-58.31,50.36-19.44,7.67-35.5,13.11-48.15,16.35-12.67,3.24-28.42,5.74-47.27,7.51-25.93,2.36-61.27,3.54-106.02,3.54l-21.2-.88v134.29Zm.88-280.97h21.2c11.19,0,20.02-1.62,26.51-4.86,6.47-3.23,12.21-12.07,17.23-26.51,4.99-14.42,7.51-34.74,7.51-60.96s-2.8-46.23-8.39-60.09c-5.6-13.83-11.19-22.08-16.79-24.73-5.6-2.66-12.23-3.98-19.88-3.98h-27.39v181.12Z"/></g></svg>